<svg width="92" height="105" viewBox="0 0 92 105" fill="none" xmlns="http://www.w3.org/2000/svg">
<path d="M13.8832 34.1408C6.5369 48.3367 10.5058 67.3443 22.7101 77.6673C33.2251 86.5608 49.0512 88.6582 61.4612 82.6818C73.8711 76.7053 82.1134 62.9227 81.3576 49.1692C79.4486 14.1379 30.1934 2.60851 13.8832 34.1408Z" fill="#3FA9F5"/>
<path d="M22.8105 22.7085C22.4625 22.9931 21.9041 23.1005 21.4449 22.7115L21.4438 22.7107C20.4965 21.8995 19.0524 21.9637 17.9304 22.5352L17.93 22.5354C16.6677 23.1757 15.9159 24.3675 15.7353 25.7849L15.7353 25.7851C15.272 29.396 17.9305 32.3176 20.5558 34.5914C24.5924 38.0862 28.7179 41.4792 32.8446 44.8732C34.7929 46.4755 36.7414 48.0781 38.681 49.6917L38.5211 49.8839L38.681 49.6917C41.6972 52.2013 44.7119 54.71 47.7265 57.2187L47.8525 57.3235C50.9091 59.8671 53.9657 62.4107 57.0239 64.9553L57.0239 64.9553C57.5405 65.3853 58.0593 65.8236 58.5817 66.265C60.5294 67.9106 62.528 69.5993 64.6536 71.0596C67.3457 72.9091 70.2214 74.3773 73.4135 74.9094L73.4138 74.9094C74.7204 75.1285 76.2965 75.1705 77.7171 74.8334C79.1369 74.4966 80.3744 73.7891 81.0608 72.5304C81.4257 71.8602 81.5355 70.9114 81.3599 70.0352C80.5051 69.1853 79.6162 68.3693 78.7456 67.5716C78.4121 67.2699 78.4038 66.8089 78.5492 66.47C78.6958 66.1285 79.0394 65.8184 79.5037 65.8785M22.8105 22.7085L79.4716 66.1264M22.8105 22.7085C23.2413 22.954 23.726 22.8103 24.0193 22.5293C24.1903 22.3655 24.3154 22.1406 24.3332 21.8899C24.3516 21.6312 24.2534 21.3718 24.0253 21.1598L24.0243 21.159C20.2412 17.6786 15.7543 13.7779 10.0866 14.3961L10.0865 14.3961C4.71766 14.9836 1.73827 20.0815 1.99848 25.0818C2.28032 30.5363 5.38491 35.6611 8.70807 39.7468C12.1167 43.9411 16.2771 47.4455 20.497 50.7448L22.8105 22.7085ZM79.5037 65.8785L79.4716 66.1264M79.5037 65.8785C79.5035 65.8785 79.5034 65.8784 79.5032 65.8784L79.4716 66.1264M79.5037 65.8785C79.6306 65.8947 79.7567 65.915 79.8819 65.9401M79.4716 66.1264C79.5751 66.1396 79.6778 66.1556 79.7794 66.1748L79.8819 65.9401M79.8819 65.9401L79.8873 65.9276L79.9065 65.9451M79.8819 65.9401C79.8901 65.9418 79.8983 65.9434 79.9065 65.9451M81.589 69.9098C81.4709 69.792 81.3522 69.6749 81.233 69.5585L81.589 69.9098ZM81.589 69.9098C81.6198 70.0505 81.6437 70.1934 81.6606 70.3371L81.589 69.9098ZM83.1049 68.972C82.9696 68.8344 82.8333 68.6978 82.6961 68.5621M83.1049 68.972L82.9267 69.1472M83.1049 68.972C83.1049 68.9719 83.1048 68.9718 83.1047 68.9718L82.9267 69.1472M83.1049 68.972C83.118 68.9852 83.131 68.9984 83.144 69.0117C83.2006 69.1794 83.2493 69.35 83.2902 69.5224C83.1698 69.396 83.0485 69.2709 82.9267 69.1472M82.6961 68.5621L82.9267 69.1472M82.6961 68.5621C82.3647 67.8473 81.8716 67.2177 81.2223 66.7614M82.6961 68.5621L81.2223 66.7614M81.2223 66.7614L81.3665 66.5572C80.9158 66.2389 80.4204 66.051 79.9065 65.9451M81.2223 66.7614L80.3001 66.3061C80.2687 66.2773 80.2372 66.2484 80.2058 66.2196L80.1453 66.1642L79.9065 65.9451M67.3322 83.891C64.0927 81.5951 60.9466 79.1584 57.7984 76.7201C56.4678 75.6896 55.1369 74.6588 53.7983 73.6382L53.7981 73.638C46.2383 67.8854 38.6777 62.1294 31.1136 56.3708C29.3606 55.0362 27.6074 53.7015 25.8539 52.3666C25.6836 52.2369 25.513 52.1071 25.3422 51.9771C17.6166 46.0983 9.46291 39.8937 5.49238 30.8485L5.49233 30.8484C4.57097 28.7519 3.93204 26.2752 4.01296 23.9248C4.09373 21.5791 4.88964 19.3731 6.82413 17.776L6.8242 17.7759C8.80761 16.1372 11.1728 15.986 13.4981 16.6134C15.8286 17.2423 18.0933 18.6487 19.8202 20.0803L67.3322 83.891ZM67.3322 83.891L67.1876 84.0949L67.3321 83.8909C67.3321 83.8909 67.3322 83.891 67.3322 83.891ZM19.9021 20.1486C18.0554 20.0619 16.1544 20.9444 14.9996 22.4469L14.9996 22.4469C12.8267 25.2759 13.668 29.3273 15.4624 32.0103L15.4627 32.0108C16.5537 33.6345 17.964 34.9846 19.4226 36.2324C19.4226 36.2324 19.4227 36.2325 19.4227 36.2325L19.5852 36.0425M19.9021 20.1486L24.2869 40.2882C27.7025 43.1309 31.1179 45.9736 34.5345 48.8212L34.5346 48.8213C37.936 51.6537 41.3382 54.4846 44.7405 57.3154L44.7472 57.321C48.1472 60.15 51.5471 62.9789 54.9462 65.8094L54.9462 65.8094C55.557 66.3179 56.1722 66.8394 56.7934 67.3659C58.9173 69.1664 61.1113 71.0263 63.4411 72.6283C66.4564 74.7018 69.7207 76.3596 73.4012 76.9196L73.4014 76.9197C76.6026 77.4047 80.7233 76.8299 82.6605 73.7507M19.9021 20.1486C19.8749 20.1258 19.8477 20.1031 19.8204 20.0805L19.9021 20.1486ZM19.5852 36.0425C20.7623 37.0509 21.9571 38.0378 23.1516 39.0244C23.5817 39.3797 24.0118 39.7349 24.441 40.0911M19.5852 36.0425C18.1322 34.7995 16.7422 33.4669 15.6702 31.8713L19.5852 36.0425ZM24.441 40.0911L24.2811 40.2833L24.2813 40.2835L24.441 40.0911ZM24.441 40.0911L24.4423 40.0922C27.8593 42.9362 31.2764 45.7802 34.6946 48.6292C38.0955 51.4613 41.4974 54.2918 44.8993 57.1223C48.3019 59.9535 51.7045 62.7846 55.1061 65.6173C55.7208 66.1289 56.3385 66.6525 56.9612 67.1804C61.8287 71.3065 67.0038 75.6933 73.4388 76.6725C76.6104 77.153 80.5938 76.5664 82.449 73.6174M82.449 73.6174L82.6604 73.7509C82.6604 73.7508 82.6605 73.7508 82.6605 73.7507M82.449 73.6174L82.6606 73.7506C82.6606 73.7506 82.6605 73.7507 82.6605 73.7507M82.449 73.6174L82.6605 73.7507M79.1478 67.6012C79.2286 67.6753 79.3096 67.7495 79.3906 67.824C79.4047 67.837 79.4188 67.8499 79.4329 67.8628C79.4175 67.8605 79.402 67.8584 79.3865 67.8564L79.0533 67.8137L79.1478 67.6012ZM88.6068 82.6284L88.3615 82.5799L88.6067 82.6285C88.6068 82.6285 88.6068 82.6284 88.6068 82.6284ZM83.108 71.899C83.1278 71.7916 83.1444 71.6834 83.1578 71.5747C83.2306 71.6579 83.3028 71.7414 83.3745 71.8254C83.3573 71.9312 83.3371 72.0365 83.3139 72.141C83.2458 72.06 83.1772 71.9793 83.108 71.899ZM87.0335 79.4078L86.785 79.4358C86.7851 79.4358 86.785 79.4359 86.7851 79.4359L87.0335 79.4078ZM85.4309 85.4243C84.0781 87.0366 82.1012 87.9362 80.0616 88.2942L85.4309 85.4243ZM64.6729 84.0912C68.6171 87.0514 73.131 90.0429 78.2623 89.9461L64.6729 84.0912Z" fill="white" stroke="white" stroke-width="0.5"/>
</svg>
