<svg width="92" height="105" viewBox="0 0 92 105" fill="none" xmlns="http://www.w3.org/2000/svg">
<path d="M13.8832 34.1408C6.5369 48.3367 10.5058 67.3443 22.7101 77.6673C33.2251 86.5608 49.0512 88.6582 61.4612 82.6818C73.8711 76.7053 82.1134 62.9227 81.3576 49.1692C79.4486 14.1379 30.1934 2.60851 13.8832 34.1408Z" fill="#3FA9F5"/>
<path d="M19.9021 20.1486C18.0554 20.0619 16.1544 20.9444 14.9996 22.4469L14.9996 22.4469C12.8267 25.2759 13.668 29.3273 15.4624 32.0103L15.4627 32.0108C16.5537 33.6345 17.964 34.9846 19.4226 36.2324C19.4226 36.2324 19.4227 36.2325 19.4227 36.2325L19.5852 36.0425C20.7623 37.0509 21.9571 38.0378 23.1516 39.0244C23.5817 39.3797 24.0118 39.7349 24.441 40.0911M19.9021 20.1486L24.2811 40.2833L24.441 40.0911M19.9021 20.1486C19.8749 20.1258 19.8476 20.1031 19.8202 20.0803C18.0933 18.6487 15.8286 17.2423 13.4981 16.6134C11.1728 15.986 8.80761 16.1372 6.8242 17.7759L6.82413 17.776C4.88964 19.3731 4.09373 21.5791 4.01296 23.9248C3.93204 26.2752 4.57097 28.7519 5.49234 30.8484L5.49238 30.8485C9.46292 39.8937 17.6166 46.0983 25.3422 51.9772C25.513 52.1071 25.6836 52.2369 25.8539 52.3666C27.6132 53.7059 29.3723 55.0451 31.1311 56.3841C38.6894 62.1383 46.2442 67.8898 53.7981 73.638L53.7983 73.6382C55.1369 74.6588 56.4679 75.6896 57.7985 76.7202C60.9466 79.1584 64.0927 81.5951 67.3322 83.891C71.0619 86.5324 75.3961 88.8608 80.0183 88.048L80.0184 88.048C82.0183 87.697 83.9348 86.8184 85.2394 85.2636L85.2396 85.2634C86.575 83.6757 87.0171 81.4982 86.785 79.4358M19.9021 20.1486L86.785 79.4358M24.441 40.0911L24.2813 40.2835L24.2869 40.2881C27.7025 43.1309 31.1179 45.9736 34.5345 48.8212L34.5346 48.8213C37.936 51.6537 41.3382 54.4846 44.7405 57.3154C48.1427 60.1462 51.5449 62.977 54.9462 65.8094L54.9462 65.8094C55.557 66.3179 56.1722 66.8394 56.7934 67.3659C58.9173 69.1664 61.1113 71.0263 63.4411 72.6283C66.4564 74.7018 69.7207 76.3596 73.4012 76.9196L73.4014 76.9197C76.6026 77.4047 80.7233 76.8299 82.6605 73.7507C82.6605 73.7508 82.6604 73.7508 82.6604 73.7509L82.449 73.6174M24.441 40.0911L24.4423 40.0922C27.8593 42.9362 31.2764 45.7802 34.6946 48.6292C38.0955 51.4613 41.4974 54.2918 44.8993 57.1223C48.3019 59.9535 51.7045 62.7846 55.1061 65.6173C55.7208 66.1289 56.3385 66.6525 56.9612 67.1804C61.8287 71.3065 67.0038 75.6933 73.4388 76.6725C76.6104 77.153 80.5938 76.5664 82.449 73.6174M82.449 73.6174C82.776 73.0992 82.9947 72.512 83.108 71.899M82.449 73.6174L82.6606 73.7506M83.108 71.899L82.6606 73.7506M83.108 71.899C83.1772 71.9793 83.2458 72.06 83.3139 72.141M83.108 71.899L82.6606 73.7506M82.6606 73.7506C82.9703 73.2597 83.187 72.7123 83.3139 72.141M83.3139 72.141C85.0939 74.2601 86.4677 76.6275 86.785 79.4358M83.3139 72.141L86.785 79.4358M83.144 69.0117C83.2006 69.1794 83.2493 69.3499 83.2902 69.5224L79.4716 66.1264L79.5037 65.8785C79.5035 65.8785 79.5034 65.8784 79.5032 65.8784C79.0392 65.8186 78.6957 66.1286 78.5492 66.47C78.4038 66.8089 78.4121 67.2699 78.7456 67.5716C79.6162 68.3693 80.5051 69.1853 81.3599 70.0352C81.5355 70.9114 81.4257 71.8602 81.0608 72.5304C80.3744 73.7891 79.1369 74.4966 77.7171 74.8334C76.2965 75.1705 74.7204 75.1285 73.4138 74.9094L73.4135 74.9094C70.2214 74.3773 67.3457 72.9091 64.6536 71.0596C62.528 69.5993 60.5294 67.9106 58.5818 66.2651C58.0593 65.8236 57.5405 65.3853 57.0239 64.9553L57.0239 64.9553C53.9657 62.4107 50.9091 59.8671 47.8525 57.3235C44.7958 54.7799 41.7392 52.2363 38.681 49.6917L38.536 49.8659L38.681 49.6917C36.7414 48.0781 34.7929 46.4755 32.8446 44.8732C28.7179 41.4792 24.5924 38.0862 20.5558 34.5914C17.9305 32.3176 15.272 29.396 15.7353 25.7851L15.7353 25.7849C15.9159 24.3675 16.6677 23.1757 17.93 22.5354L17.9304 22.5352C19.0524 21.9637 20.4965 21.8995 21.4438 22.7107L21.4449 22.7115C21.9041 23.1005 22.4625 22.9931 22.8105 22.7085C23.2413 22.954 23.726 22.8103 24.0193 22.5293C24.1903 22.3655 24.3154 22.1406 24.3332 21.8899C24.3516 21.6312 24.2534 21.3718 24.0253 21.1598L24.0243 21.159C20.2412 17.6786 15.7543 13.7779 10.0866 14.3961L10.0865 14.3961C4.7177 14.9836 1.73831 20.0814 1.99847 25.0817C2.28029 30.5363 5.38489 35.6611 8.70807 39.7468C12.1167 43.9412 16.2771 47.4456 20.4971 50.7449C27.0849 55.9027 33.7653 60.9504 40.4424 65.9955C43.5529 68.3458 46.6627 70.6955 49.762 73.0555C51.3584 74.2711 52.9528 75.4905 54.5473 76.7099C57.8652 79.2474 61.1837 81.7854 64.5229 84.2911C68.4634 87.2487 73.0404 90.2946 78.267 90.1961C82.8981 90.1094 87.6338 87.5483 88.6068 82.6284C89.6603 77.3223 86.6416 72.5737 83.144 69.0117ZM83.144 69.0117C82.8152 68.0373 82.2215 67.1582 81.3665 66.5572M83.144 69.0117L79.9065 65.9451M79.9065 65.9451L79.8873 65.9276L79.8819 65.9401L79.9065 65.9451ZM79.9065 65.9451C80.4204 66.051 80.9158 66.2389 81.3665 66.5572M81.3665 66.5572L81.2223 66.7614L81.366 66.5569C81.3662 66.557 81.3664 66.5571 81.3665 66.5572ZM83.1049 68.972C83.1049 68.9719 83.1048 68.9718 83.1047 68.9718L82.9267 69.1472L83.1049 68.972ZM64.6729 84.0912C68.6171 87.0514 73.131 90.0429 78.2623 89.9461C82.8236 89.8607 87.4195 87.3433 88.3615 82.5799L64.6729 84.0912Z" fill="white" stroke="white" stroke-width="0.5"/>
</svg>
