<svg width="81" height="92" viewBox="0 0 81 92" fill="none" xmlns="http://www.w3.org/2000/svg">
<g clip-path="url(#clip0_193_93)">
<path d="M50.4305 63.195C43.603 53.3724 34.0041 45.8898 25.4965 37.484C16.9889 29.0783 5.03515 15.701 3.5 3.8372C3.20646 1.56722 4.62388 1.46022 4.62388 1.46022C3.03856 1.0966 1.43668 2.32979 0.830411 3.8372C0.220788 5.34567 0.363209 7.03594 0.541155 8.65214C2.48684 26.3934 7.75119 43.7366 15.8065 59.6494C23.4546 74.7575 34.5549 92.4308 48.459 102.536C50.3216 99.6728 53.6769 99.204 55.7731 96.7501C57.8659 94.2972 58.1582 90.1534 58.2662 87.091C58.5655 78.5802 55.2284 70.0959 50.4305 63.195Z" fill="#39B54A"/>
<path d="M78.7063 71.6225C76.1518 62.2244 71.0356 53.7742 66.4762 45.1708C61.9167 36.5675 57.7914 27.3773 57.5197 17.6438C55.2437 41.1653 56.0221 64.9789 59.8349 88.3027C60.4837 92.2712 61.3344 96.4647 64.0849 99.4024C70.1368 105.859 75.8723 99.8565 78.2138 93.9057C80.9786 86.867 80.6597 78.8198 78.7063 71.6225Z" fill="#59B539"/>
<path d="M8.75911 21.6625C7.60478 20.715 6.45151 19.7709 5.29718 18.8234C4.97697 18.5596 4.35657 18.7569 4.4167 19.2363C4.61828 20.8339 4.81757 22.4359 5.01914 24.0335C5.05416 24.3178 5.26569 24.5534 5.56856 24.542C5.8347 24.5312 6.112 24.2768 6.07699 23.9926C5.87541 22.3949 5.67612 20.7929 5.47455 19.1953C5.18217 19.3326 4.88645 19.471 4.59407 19.6083C5.74841 20.5558 6.90168 21.4999 8.05601 22.4474C8.57313 22.8775 9.28507 22.0972 8.75911 21.6625Z" fill="#A0EF92"/>
<path d="M14.523 40.7042C13.6734 40.7381 12.8204 40.773 11.9718 40.8102C11.5309 40.8286 11.3822 41.2784 11.5487 41.6279C12.069 42.718 13.1246 43.3203 13.9207 44.1749C14.2728 44.5504 14.6495 45.0731 14.5974 45.6177C14.5557 46.0556 14.2767 46.5136 13.8015 46.517C13.3195 46.5226 13.1565 47.1247 13.4694 47.4351C14.3015 48.2635 15.138 49.0942 15.9701 49.9226C16.451 50.4011 17.1585 49.6185 16.6777 49.14C15.8455 48.3116 15.009 47.4809 14.1769 46.6525C14.0669 46.957 13.9547 47.2659 13.8448 47.5705C15.3308 47.5521 15.9737 45.8115 15.4541 44.5957C14.8193 43.0989 13.1204 42.4944 12.4337 41.0548C12.2919 41.3288 12.1523 41.5985 12.0105 41.8725C12.8602 41.8386 13.7132 41.8037 14.5617 41.7665C15.2444 41.7303 15.2012 40.6769 14.523 40.7042Z" fill="#A0EF92"/>
<path d="M28.0414 69.4179C28.9856 70.7497 28.684 72.7622 27.3374 73.7184C26.8406 74.0722 27.2089 74.8007 27.7862 74.6651C28.5622 74.4811 29.4462 74.776 29.9338 75.4149C30.4617 76.1111 30.4563 77.0581 30.0265 77.7967C29.8613 78.0782 30.0546 78.5005 30.3788 78.5561C31.9456 78.8149 32.6887 80.6058 33.4042 81.8222C34.3752 83.4705 35.4226 85.0687 36.5463 86.6167C38.7873 89.7038 41.3182 92.588 44.0909 95.2106C45.6684 96.6992 47.3262 98.1033 49.0542 99.4149C49.5905 99.8241 50.3025 99.0438 49.7617 98.6323C43.5392 93.9053 38.2557 87.9859 34.2891 81.249C33.4148 79.7656 32.5044 77.8432 30.6101 77.5299C30.7279 77.7841 30.8446 78.0351 30.9624 78.2893C31.5984 77.2008 31.5351 75.7476 30.741 74.7483C29.9599 73.767 28.6698 73.3796 27.465 73.6668C27.6131 73.9816 27.7646 74.2953 27.9138 74.6134C29.7132 73.3396 30.211 70.6665 28.9251 68.8525C28.5322 68.2906 27.6473 68.8637 28.0414 69.4179Z" fill="#A0EF92"/>
<path d="M72.2944 100.259C76.0067 96.9067 78.3734 92.1216 78.8707 87.1482C79.0141 85.7179 79.015 84.2811 78.849 82.8531C78.8033 82.4541 78.3938 82.2114 78.0313 82.43C77.5913 82.6955 77.1558 82.9632 76.7159 83.2287C76.9899 83.3705 77.2595 83.51 77.5336 83.6518C77.1843 79.7785 76.8307 75.9028 76.4814 72.0295C76.3956 71.0745 76.3064 70.1206 76.2216 69.169C76.1831 68.7344 76.1413 68.3009 76.1039 67.8697C76.0567 67.3382 75.8423 66.9079 75.632 66.4208C74.8674 64.6552 74.1017 62.8861 73.3371 61.1205C72.4572 59.085 71.5772 57.0495 70.6983 55.0174C70.5322 54.6345 70.1129 54.5352 69.8018 54.8225C69.3744 55.2205 68.9471 55.6186 68.5188 56.0133C68.8161 56.0776 69.1135 56.1418 69.4153 56.2083C68.1863 51.9722 66.9563 47.7327 65.7239 43.4977C65.6282 43.1736 65.2118 43.0254 64.9321 43.2141C64.267 43.6656 63.6019 44.1171 62.9334 44.5697C63.1959 44.6635 63.4617 44.7562 63.7252 44.8534C62.5556 41.1523 61.3883 37.4468 60.2187 33.7457C60.0128 33.0985 59.0068 33.4184 59.2126 34.0657C60.3822 37.7667 61.5496 41.4722 62.7192 45.1733C62.8216 45.4953 63.2246 45.6477 63.511 45.4569C64.1761 45.0054 64.8412 44.5539 65.5097 44.1013C65.2472 44.0075 64.9814 43.9148 64.7178 43.8176C65.9468 48.0537 67.1769 52.2932 68.4092 56.5282C68.5293 56.9406 69.0262 56.9819 69.3058 56.7232C69.7331 56.3251 70.1604 55.927 70.5888 55.5323C70.2914 55.4681 69.994 55.4039 69.6922 55.3374C71.2225 58.872 72.7484 62.4044 74.2787 65.9391C74.4631 66.3679 74.6508 66.7956 74.8352 67.2244C75.0454 67.7115 75.0736 68.1715 75.122 68.6953C75.2078 69.6502 75.297 70.6041 75.3817 71.5557C75.5567 73.4646 75.7273 75.3711 75.9023 77.28C76.0953 79.4195 76.2916 81.5579 76.4846 83.6974C76.5212 84.103 76.9454 84.3337 77.3023 84.1205C77.7422 83.855 78.1777 83.5873 78.6177 83.3218C78.3436 83.18 78.074 83.0405 77.8 82.8987C78.3527 87.6674 77.0589 92.6098 74.2505 96.5051C73.4483 97.6169 72.5316 98.6359 71.5162 99.5534C71.0068 100.007 71.7962 100.712 72.2944 100.259Z" fill="#A0EF92"/>
<path d="M45.8767 60.6846C43.5017 60.6016 41.5313 58.3885 41.605 56.0424C41.6123 55.8333 41.4112 55.5723 41.1934 55.5493C37.7486 55.1677 34.8804 51.8037 35.2382 48.3074C35.2727 47.9862 35.0762 47.6352 34.7018 47.6656C31.3607 47.912 28.1504 45.1442 27.9476 41.7893C27.9303 41.5142 27.6901 41.2582 27.3982 41.2809C24.0236 41.538 20.8708 38.5562 20.9221 35.1759C20.9283 34.8822 20.6464 34.669 20.3726 34.6675C17.0342 34.6435 14.0445 31.3735 14.3891 28.0328C14.4573 27.3649 13.4289 27.127 13.3595 27.8027C12.9441 31.8379 16.3352 35.6967 20.4136 35.7253C20.2301 35.5547 20.0477 35.3875 19.8642 35.2169C19.8019 39.1546 23.512 42.6349 27.4348 42.3365C27.2513 42.1659 27.0688 41.9986 26.8853 41.828C27.1239 45.7366 30.8192 49.0074 34.7373 48.7178C34.5589 48.505 34.3793 48.2888 34.2009 48.076C33.7857 52.1001 36.8805 56.1306 40.9531 56.5821C40.8163 56.4188 40.6784 56.2522 40.5415 56.0889C40.4528 59.038 42.9909 61.6429 45.911 61.7445C46.5963 61.7629 46.5519 60.7062 45.8767 60.6846Z" fill="#A0EF92"/>
</g>
<defs>
<clipPath id="clip0_193_93">
<rect width="81" height="92" fill="white"/>
</clipPath>
</defs>
</svg>
